<svg xmlns="http://www.w3.org/2000/svg" width="560" height="560" viewBox="0 0 110 110" fill="none">
  <defs>
    <linearGradient id="silver" x1="0" y1="0" x2="1" y2="1">
      <stop offset="0" stop-color="#f8f9fb"></stop>
      <stop offset=".45" stop-color="#d0d5dc"></stop>
      <stop offset="1" stop-color="#9aa0ab"></stop>
    </linearGradient>
    <linearGradient id="silverRim" x1="0" y1="0" x2="0" y2="1">
      <stop offset="0" stop-color="#eef0f3"></stop>
      <stop offset=".5" stop-color="#aab0bb"></stop>
      <stop offset="1" stop-color="#dde1e7"></stop>
    </linearGradient>
    <radialGradient id="sheen" cx="36%" cy="30%" r="72%">
      <stop offset="0" stop-color="#ffffff" stop-opacity=".85"></stop>
      <stop offset=".42" stop-color="#ffffff" stop-opacity="0"></stop>
    </radialGradient>
    <linearGradient id="gold" x1="0" y1="0" x2="1" y2="1">
      <stop offset="0" stop-color="#fde68a"></stop>
      <stop offset=".5" stop-color="#f5c84b"></stop>
      <stop offset="1" stop-color="#c79a3a"></stop>
    </linearGradient>
  </defs>
  <g transform="translate(5 5)">
    <path d="M16 18 l2 5 l5 2 l-5 2 l-2 5 l-2 -5 l-5 -2 l5 -2 z" fill="url(#gold)"></path>
    <path d="M86 24 l1.6 4 l4 1.6 l-4 1.6 l-1.6 4 l-1.6 -4 l-4 -1.6 l4 -1.6 z" fill="url(#gold)"></path>
    <circle cx="50" cy="52" r="44" fill="url(#silver)"></circle>
    <circle cx="50" cy="52" r="44" fill="none" stroke="url(#silverRim)" stroke-width="4"></circle>
    <circle cx="50" cy="52" r="44" fill="url(#sheen)"></circle>
    <path d="M33 47 q3 -5 7 0" fill="none" stroke="#2b2f38" stroke-width="3.6" stroke-linecap="round"></path>
    <path d="M60 47 q3 -5 7 0" fill="none" stroke="#2b2f38" stroke-width="3.6" stroke-linecap="round"></path>
    <path d="M37 60 Q50 73 63 60" fill="none" stroke="#2b2f38" stroke-width="4.2" stroke-linecap="round"></path>
  </g>
</svg>